<svg xmlns="http://www.w3.org/2000/svg" viewBox="0 0 280 56" fill="none">
  <!-- Gerber Childrenswear Logo Mark - Stylized G with baby silhouette -->
  <g>
    <!-- Outer G shape -->
    <path d="M28 4C14.745 4 4 14.745 4 28s10.745 24 24 24c10.15 0 18.91-6.3 22.4-15.2H34.8c-2.6 4.1-7.15 6.8-12.4 6.8-8.28 0-15-6.72-15-15s6.72-15 15-15c5.25 0 9.8 2.7 12.4 6.8h15.6C47.91 10.3 38.15 4 28 4z" fill="#1B365D"/>
    <!-- Inner G bar -->
    <rect x="28" y="24" width="20" height="8" rx="2" fill="#1B365D"/>
    <!-- Baby face silhouette (simplified) -->
    <ellipse cx="28" cy="26" rx="8" ry="9" fill="#FFFFFF" opacity="0.15"/>
    <circle cx="28" cy="24" r="6.5" fill="#FFFFFF" opacity="0.2"/>
  </g>
  <!-- Company Name -->
  <text x="62" y="24" font-family="-apple-system, BlinkMacSystemFont, 'Segoe UI', sans-serif" font-size="18" font-weight="700" fill="#1B365D" letter-spacing="-0.02em">Gerber</text>
  <text x="62" y="44" font-family="-apple-system, BlinkMacSystemFont, 'Segoe UI', sans-serif" font-size="14" font-weight="500" fill="#4A6FA5" letter-spacing="0.02em">Childrenswear</text>
</svg>